<?xml version="1.0" standalone="no"?>
<!DOCTYPE svg PUBLIC "-//W3C//DTD SVG 20010904//EN"
 "http://www.w3.org/TR/2001/REC-SVG-20010904/DTD/svg10.dtd">
<svg version="1.0" xmlns="http://www.w3.org/2000/svg"
 width="467.000000pt" height="467.000000pt" viewBox="0 0 467.000000 467.000000"
 preserveAspectRatio="xMidYMid meet">
<metadata>
Created by potrace 1.14, written by Peter Selinger 2001-2017
</metadata>
<g transform="translate(0.000000,467.000000) scale(0.100000,-0.100000)"
fill="#000000" stroke="none">
<path d="M2338 4566 c-1 -2 -43 -6 -93 -9 -252 -16 -511 -134 -697 -316 -173
-171 -279 -373 -323 -616 -14 -79 -14 -314 0 -380 38 -183 115 -360 211 -485
55 -72 883 -910 899 -910 18 0 846 841 902 917 75 101 144 240 178 357 34 121
40 168 40 331 0 112 -5 159 -24 235 -53 219 -146 385 -301 541 -185 187 -438
307 -685 325 -44 3 -85 7 -92 9 -6 2 -13 2 -15 1z m86 -620 c111 -18 215 -69
302 -148 47 -43 117 -150 141 -218 117 -319 -69 -663 -405 -750 -23 -6 -82
-11 -130 -11 -312 0 -562 249 -564 563 -3 349 311 619 656 564z"/>
<path d="M5 1239 c0 -834 3 -1122 12 -1127 14 -9 1152 -7 1243 2 160 16 379
100 517 197 380 269 556 742 444 1194 -52 209 -146 372 -305 530 -148 147
-348 257 -536 294 -30 6 -66 14 -80 18 -14 3 -311 7 -660 9 l-635 2 0 -1119z
m1273 541 c107 -30 168 -66 252 -150 108 -107 159 -221 166 -371 11 -231 -110
-433 -321 -537 -80 -40 -135 -54 -225 -57 -151 -5 -289 47 -415 157 -45 39
-121 163 -145 235 -24 72 -32 206 -18 290 36 209 242 410 458 446 69 12 180 6
248 -13z"/>
<path d="M3438 2355 c-2 -1 -28 -6 -60 -9 -138 -16 -323 -86 -458 -175 -103
-67 -247 -210 -313 -309 -80 -119 -154 -299 -172 -412 -16 -105 -21 -162 -19
-225 1 -92 13 -202 25 -231 4 -13 7 -24 4 -24 -6 0 50 -157 78 -220 54 -120
157 -256 276 -363 254 -229 638 -330 971 -255 25 5 52 11 60 13 45 9 152 51
219 85 336 170 571 510 608 880 11 102 5 256 -11 335 -86 418 -394 754 -796
869 -47 13 -105 27 -130 31 -47 7 -276 16 -282 10z m283 -585 c82 -27 132 -57
198 -116 273 -246 244 -682 -59 -891 -118 -80 -279 -115 -425 -90 -135 23
-280 119 -362 240 -73 107 -98 192 -97 327 1 153 44 264 146 375 153 168 383
227 599 155z"/>
</g>
</svg>
